<mxfile host="app.diagrams.net" agent="Mozilla/5.0 (Windows NT 10.0; Win64; x64) AppleWebKit/537.36 (KHTML, like Gecko) Chrome/130.0.0.0 Safari/537.36 Edg/130.0.0.0" version="24.8.0">
  <diagram name="Page-1" id="e3a06f82-3646-2815-327d-82caf3d4e204">
    <mxGraphModel dx="3702" dy="1682" grid="1" gridSize="10" guides="1" tooltips="1" connect="1" arrows="1" fold="1" page="1" pageScale="1.5" pageWidth="1169" pageHeight="826" background="none" math="0" shadow="0">
      <root>
        <mxCell id="0" style=";html=1;" />
        <mxCell id="1" style=";html=1;" parent="0" />
        <mxCell id="6a7d8f32e03d9370-61" value="Database" style="whiteSpace=wrap;html=1;fillColor=#f8cecc;fontSize=14;strokeColor=none;verticalAlign=top;" parent="1" vertex="1">
          <mxGeometry x="1390" y="302" width="220" height="408" as="geometry" />
        </mxCell>
        <mxCell id="6a7d8f32e03d9370-60" value="" style="whiteSpace=wrap;html=1;fillColor=#d5e8d4;fontSize=14;strokeColor=none;verticalAlign=top;" parent="1" vertex="1">
          <mxGeometry x="1038.99" y="280" width="182" height="410" as="geometry" />
        </mxCell>
        <mxCell id="6a7d8f32e03d9370-59" value="Citrix" style="whiteSpace=wrap;html=1;fillColor=#EDEDED;fontSize=14;strokeColor=none;verticalAlign=top;" parent="1" vertex="1">
          <mxGeometry x="540" y="130" width="280" height="682" as="geometry" />
        </mxCell>
        <mxCell id="6a7d8f32e03d9370-57" value="终端用户" style="whiteSpace=wrap;html=1;fillColor=#FFD470;gradientColor=none;fontSize=14;strokeColor=none;verticalAlign=top;" parent="1" vertex="1">
          <mxGeometry x="70" y="123" width="197" height="680" as="geometry" />
        </mxCell>
        <mxCell id="6a7d8f32e03d9370-35" style="edgeStyle=none;rounded=0;html=1;startSize=10;endSize=10;jettySize=auto;orthogonalLoop=1;fontSize=14;endArrow=none;endFill=0;strokeWidth=2;entryX=0.074;entryY=0.645;entryDx=0;entryDy=0;entryPerimeter=0;" parent="1" source="6a7d8f32e03d9370-2" target="Z2uGZewagYrOCoyfHnp2-15" edge="1">
          <mxGeometry relative="1" as="geometry">
            <mxPoint x="436" y="488" as="targetPoint" />
          </mxGeometry>
        </mxCell>
        <mxCell id="6a7d8f32e03d9370-2" value="Client" style="verticalLabelPosition=bottom;aspect=fixed;html=1;verticalAlign=top;strokeColor=none;shape=mxgraph.citrix.laptop_2;fillColor=#66B2FF;gradientColor=#0066CC;fontSize=14;" parent="1" vertex="1">
          <mxGeometry x="132.4999999999999" y="674" width="116" height="86.5" as="geometry" />
        </mxCell>
        <mxCell id="6a7d8f32e03d9370-34" style="edgeStyle=none;rounded=0;html=1;startSize=10;endSize=10;jettySize=auto;orthogonalLoop=1;fontSize=14;endArrow=none;endFill=0;strokeWidth=2;entryX=-0.061;entryY=0.611;entryDx=0;entryDy=0;entryPerimeter=0;" parent="1" source="6a7d8f32e03d9370-3" target="Z2uGZewagYrOCoyfHnp2-15" edge="1">
          <mxGeometry relative="1" as="geometry" />
        </mxCell>
        <mxCell id="6a7d8f32e03d9370-3" value="client" style="verticalLabelPosition=bottom;aspect=fixed;html=1;verticalAlign=top;strokeColor=none;shape=mxgraph.citrix.desktop;fillColor=#66B2FF;gradientColor=#0066CC;fontSize=14;" parent="1" vertex="1">
          <mxGeometry x="145.99999999999994" y="508.99999999999994" width="89" height="98" as="geometry" />
        </mxCell>
        <mxCell id="6a7d8f32e03d9370-33" style="edgeStyle=none;rounded=0;html=1;startSize=10;endSize=10;jettySize=auto;orthogonalLoop=1;fontSize=14;endArrow=none;endFill=0;strokeWidth=2;entryX=0.147;entryY=0.568;entryDx=0;entryDy=0;entryPerimeter=0;" parent="1" source="6a7d8f32e03d9370-4" target="Z2uGZewagYrOCoyfHnp2-15" edge="1">
          <mxGeometry relative="1" as="geometry" />
        </mxCell>
        <mxCell id="6a7d8f32e03d9370-4" value="Client" style="verticalLabelPosition=bottom;aspect=fixed;html=1;verticalAlign=top;strokeColor=none;shape=mxgraph.citrix.desktop;fillColor=#66B2FF;gradientColor=#0066CC;fontSize=14;" parent="1" vertex="1">
          <mxGeometry x="145.99999999999994" y="345.00000000000006" width="89" height="98" as="geometry" />
        </mxCell>
        <mxCell id="6a7d8f32e03d9370-32" style="edgeStyle=none;rounded=0;html=1;startSize=10;endSize=10;jettySize=auto;orthogonalLoop=1;fontSize=14;endArrow=none;endFill=0;strokeWidth=2;entryX=-0.061;entryY=0.372;entryDx=0;entryDy=0;entryPerimeter=0;" parent="1" source="6a7d8f32e03d9370-5" target="Z2uGZewagYrOCoyfHnp2-15" edge="1">
          <mxGeometry relative="1" as="geometry" />
        </mxCell>
        <mxCell id="6a7d8f32e03d9370-5" value="Client" style="verticalLabelPosition=bottom;aspect=fixed;html=1;verticalAlign=top;strokeColor=none;shape=mxgraph.citrix.desktop;fillColor=#66B2FF;gradientColor=#0066CC;fontSize=14;" parent="1" vertex="1">
          <mxGeometry x="142.00000000000006" y="181.00000000000006" width="89" height="98" as="geometry" />
        </mxCell>
        <mxCell id="6a7d8f32e03d9370-9" value="" style="verticalLabelPosition=bottom;aspect=fixed;html=1;verticalAlign=top;strokeColor=none;shape=mxgraph.citrix.xenapp_server;fillColor=#66B2FF;gradientColor=#0066CC;fontSize=14;" parent="1" vertex="1">
          <mxGeometry x="642.0000000000001" y="673" width="76" height="89" as="geometry" />
        </mxCell>
        <mxCell id="6a7d8f32e03d9370-10" value="" style="verticalLabelPosition=bottom;aspect=fixed;html=1;verticalAlign=top;strokeColor=none;shape=mxgraph.citrix.xenapp_server;fillColor=#66B2FF;gradientColor=#0066CC;fontSize=14;" parent="1" vertex="1">
          <mxGeometry x="641.9999999999999" y="508" width="76" height="89" as="geometry" />
        </mxCell>
        <mxCell id="6a7d8f32e03d9370-11" value="" style="verticalLabelPosition=bottom;aspect=fixed;html=1;verticalAlign=top;strokeColor=none;shape=mxgraph.citrix.xenapp_server;fillColor=#66B2FF;gradientColor=#0066CC;fontSize=14;" parent="1" vertex="1">
          <mxGeometry x="641.9999999999999" y="344" width="76" height="89" as="geometry" />
        </mxCell>
        <mxCell id="6a7d8f32e03d9370-12" value="" style="verticalLabelPosition=bottom;aspect=fixed;html=1;verticalAlign=top;strokeColor=none;shape=mxgraph.citrix.xenapp_server;fillColor=#66B2FF;gradientColor=#0066CC;fontSize=14;" parent="1" vertex="1">
          <mxGeometry x="642.0000000000001" y="180" width="76" height="89" as="geometry" />
        </mxCell>
        <mxCell id="6a7d8f32e03d9370-51" style="edgeStyle=none;rounded=0;html=1;startSize=10;endSize=10;jettySize=auto;orthogonalLoop=1;fontSize=14;endArrow=none;endFill=0;strokeWidth=2;" parent="1" source="6a7d8f32e03d9370-13" target="6a7d8f32e03d9370-15" edge="1">
          <mxGeometry relative="1" as="geometry" />
        </mxCell>
        <mxCell id="6a7d8f32e03d9370-13" value="" style="verticalLabelPosition=bottom;aspect=fixed;html=1;verticalAlign=top;strokeColor=none;shape=mxgraph.citrix.router;fillColor=#66B2FF;gradientColor=#0066CC;fontSize=14;" parent="1" vertex="1">
          <mxGeometry x="940" y="435.5" width="51.99" height="34.5" as="geometry" />
        </mxCell>
        <mxCell id="6a7d8f32e03d9370-14" value="" style="verticalLabelPosition=bottom;aspect=fixed;html=1;verticalAlign=top;strokeColor=none;shape=mxgraph.citrix.xenclient_synchronizer;fillColor=#CCCCCC;gradientColor=#000000;gradientDirection=south;fontSize=14;" parent="1" vertex="1">
          <mxGeometry x="1472" y="379" width="76" height="91" as="geometry" />
        </mxCell>
        <mxCell id="6a7d8f32e03d9370-15" value="Web Server1" style="verticalLabelPosition=top;aspect=fixed;html=1;verticalAlign=bottom;strokeColor=none;shape=mxgraph.citrix.cache_server;fillColor=#66B2FF;gradientColor=#0066CC;fontSize=14;labelPosition=center;align=center;" parent="1" vertex="1">
          <mxGeometry x="1120" y="357" width="71" height="97.5" as="geometry" />
        </mxCell>
        <mxCell id="6a7d8f32e03d9370-44" style="edgeStyle=none;rounded=0;html=1;startSize=10;endSize=10;jettySize=auto;orthogonalLoop=1;fontSize=14;endArrow=none;endFill=0;strokeWidth=2;exitX=0.841;exitY=0.648;exitDx=0;exitDy=0;exitPerimeter=0;" parent="1" source="6a7d8f32e03d9370-12" target="6a7d8f32e03d9370-13" edge="1">
          <mxGeometry relative="1" as="geometry">
            <mxPoint x="834" y="246.8515882812303" as="sourcePoint" />
          </mxGeometry>
        </mxCell>
        <mxCell id="6a7d8f32e03d9370-45" style="edgeStyle=none;rounded=0;html=1;startSize=10;endSize=10;jettySize=auto;orthogonalLoop=1;fontSize=14;endArrow=none;endFill=0;strokeWidth=2;exitX=0.717;exitY=0.59;exitDx=0;exitDy=0;exitPerimeter=0;" parent="1" source="6a7d8f32e03d9370-11" target="6a7d8f32e03d9370-13" edge="1">
          <mxGeometry relative="1" as="geometry">
            <mxPoint x="834" y="379.86687910925275" as="sourcePoint" />
          </mxGeometry>
        </mxCell>
        <mxCell id="6a7d8f32e03d9370-46" style="edgeStyle=none;rounded=0;html=1;startSize=10;endSize=10;jettySize=auto;orthogonalLoop=1;fontSize=14;endArrow=none;endFill=0;strokeWidth=2;exitX=0.81;exitY=0.453;exitDx=0;exitDy=0;exitPerimeter=0;" parent="1" source="6a7d8f32e03d9370-10" target="6a7d8f32e03d9370-13" edge="1">
          <mxGeometry relative="1" as="geometry">
            <mxPoint x="834" y="512.882169937275" as="sourcePoint" />
          </mxGeometry>
        </mxCell>
        <mxCell id="6a7d8f32e03d9370-47" style="edgeStyle=none;rounded=0;html=1;startSize=10;endSize=10;jettySize=auto;orthogonalLoop=1;fontSize=14;endArrow=none;endFill=0;strokeWidth=2;exitX=0.485;exitY=0.516;exitDx=0;exitDy=0;exitPerimeter=0;" parent="1" source="6a7d8f32e03d9370-9" target="6a7d8f32e03d9370-13" edge="1">
          <mxGeometry relative="1" as="geometry">
            <mxPoint x="832" y="649" as="sourcePoint" />
          </mxGeometry>
        </mxCell>
        <mxCell id="6a7d8f32e03d9370-62" value="NonGLP Deploy Architecture" style="text;strokeColor=none;fillColor=none;html=1;fontSize=24;fontStyle=1;verticalAlign=middle;align=center;" parent="1" vertex="1">
          <mxGeometry x="499" y="30" width="861" height="40" as="geometry" />
        </mxCell>
        <mxCell id="SttGzAFvQQsQxuULTrQj-1" value="Load Balancer" style="text;html=1;align=center;verticalAlign=middle;whiteSpace=wrap;rounded=0;" parent="1" vertex="1">
          <mxGeometry x="390" y="1209" width="60" height="30" as="geometry" />
        </mxCell>
        <mxCell id="SttGzAFvQQsQxuULTrQj-2" value="Web Server2" style="verticalLabelPosition=top;aspect=fixed;html=1;verticalAlign=bottom;strokeColor=none;shape=mxgraph.citrix.cache_server;fillColor=#66B2FF;gradientColor=#0066CC;fontSize=14;labelPosition=center;align=center;" parent="1" vertex="1">
          <mxGeometry x="1120" y="551.5" width="71" height="97.5" as="geometry" />
        </mxCell>
        <mxCell id="SttGzAFvQQsQxuULTrQj-3" value="" style="endArrow=none;html=1;rounded=0;" parent="1" source="SttGzAFvQQsQxuULTrQj-2" target="6a7d8f32e03d9370-13" edge="1">
          <mxGeometry width="50" height="50" relative="1" as="geometry">
            <mxPoint x="920" y="710" as="sourcePoint" />
            <mxPoint x="1020" y="470" as="targetPoint" />
          </mxGeometry>
        </mxCell>
        <mxCell id="SttGzAFvQQsQxuULTrQj-4" value="Database（主）" style="text;html=1;align=center;verticalAlign=middle;whiteSpace=wrap;rounded=0;" parent="1" vertex="1">
          <mxGeometry x="1450" y="349" width="120" height="30" as="geometry" />
        </mxCell>
        <mxCell id="SttGzAFvQQsQxuULTrQj-7" value="" style="verticalLabelPosition=bottom;aspect=fixed;html=1;verticalAlign=top;strokeColor=none;shape=mxgraph.citrix.xenclient_synchronizer;fillColor=#CCCCCC;gradientColor=#000000;gradientDirection=south;fontSize=14;" parent="1" vertex="1">
          <mxGeometry x="1472" y="558" width="76" height="91" as="geometry" />
        </mxCell>
        <mxCell id="SttGzAFvQQsQxuULTrQj-8" value="Database（从）" style="text;html=1;align=center;verticalAlign=middle;whiteSpace=wrap;rounded=0;" parent="1" vertex="1">
          <mxGeometry x="1450" y="528" width="120" height="30" as="geometry" />
        </mxCell>
        <mxCell id="SttGzAFvQQsQxuULTrQj-9" value="" style="endArrow=none;html=1;rounded=0;exitX=0.5;exitY=1;exitDx=0;exitDy=0;" parent="1" source="SttGzAFvQQsQxuULTrQj-8" target="6a7d8f32e03d9370-14" edge="1">
          <mxGeometry width="50" height="50" relative="1" as="geometry">
            <mxPoint x="1210" y="580" as="sourcePoint" />
            <mxPoint x="1260" y="530" as="targetPoint" />
          </mxGeometry>
        </mxCell>
        <mxCell id="SttGzAFvQQsQxuULTrQj-10" value="" style="endArrow=none;html=1;rounded=0;entryX=0;entryY=0.25;entryDx=0;entryDy=0;" parent="1" source="6a7d8f32e03d9370-15" target="Z2uGZewagYrOCoyfHnp2-13" edge="1">
          <mxGeometry width="50" height="50" relative="1" as="geometry">
            <mxPoint x="1330" y="550" as="sourcePoint" />
            <mxPoint x="1380" y="500" as="targetPoint" />
          </mxGeometry>
        </mxCell>
        <mxCell id="SttGzAFvQQsQxuULTrQj-11" value="" style="endArrow=none;html=1;rounded=0;" parent="1" source="SttGzAFvQQsQxuULTrQj-2" target="Z2uGZewagYrOCoyfHnp2-13" edge="1">
          <mxGeometry width="50" height="50" relative="1" as="geometry">
            <mxPoint x="1280" y="600" as="sourcePoint" />
            <mxPoint x="1330" y="550" as="targetPoint" />
          </mxGeometry>
        </mxCell>
        <mxCell id="SttGzAFvQQsQxuULTrQj-15" value="" style="image;sketch=0;aspect=fixed;html=1;points=[];align=center;fontSize=12;image=img/lib/mscae/Cache_Redis_Product.svg;" parent="1" vertex="1">
          <mxGeometry x="1130.5" y="442" width="50" height="42" as="geometry" />
        </mxCell>
        <mxCell id="SttGzAFvQQsQxuULTrQj-16" value="" style="image;sketch=0;aspect=fixed;html=1;points=[];align=center;fontSize=12;image=img/lib/mscae/Cache_Redis_Product.svg;" parent="1" vertex="1">
          <mxGeometry x="1130.5" y="640" width="50" height="42" as="geometry" />
        </mxCell>
        <mxCell id="SttGzAFvQQsQxuULTrQj-17" value="注射泵" style="whiteSpace=wrap;html=1;fillColor=#e1d5e7;fontSize=14;strokeColor=#9673a6;verticalAlign=top;" parent="1" vertex="1">
          <mxGeometry x="80" y="1030" width="196" height="480" as="geometry" />
        </mxCell>
        <mxCell id="SttGzAFvQQsQxuULTrQj-18" value="" style="shape=image;verticalLabelPosition=bottom;labelBackgroundColor=default;verticalAlign=top;aspect=fixed;imageAspect=0;image=data:image/png,iVBORw0KGgoAAAANSUhEUgAAAEoAAAAvCAYAAABE6VyYAAAAAXNSR0IArs4c6QAAAARnQU1BAACxjwv8YQUAAAAJcEhZcwAAFxEAABcRAcom8z8AABBhSURBVGhD7Zl3VFZ3msf3nz2752RbZrOb7Oxo9mSMo2InOprmGEYRpffepBdpVkRRQE0EQUBEkaZoVBBBUJQIkfryNnipL7z03m0gvXz3+V3AODnJBA1kMufwnPN4L5fr+/5+n/t92uUfsGCzsgVQs7QFULO0BVCztAVQs7QFULO0BVCztAVQs7R5BzU+PoahoSGMjo5OX/n7tHkGNYn+F31obW1GpbQKnR2d09e/s/7+fgiFIrqnlQM6OX3912bzCmpiYgI9vd0oKZEg42Emamvrpn8zZQySWCxGcnIKSksrUF4qRq2sHIODg9N3/HpsXkGNjY2juakJPF4u0tO/QZGkBE+fPn8JIijoLPxOnEJ8/G36fSZysr+FSMBDQ309+vr6uXtexyYn50+P8x56dbTplLt3UVFexrlMVoW6ujoMDAwgKfkOLl++isTEVKTde4ikpLvIzeWhukpGgJvx/Pnzv7r58fFxPH7ci/b2drS0tKChoQHd3d30gMam75g7mzNQLMwmSEGDw8Mo7+5BAy24q6sLNdXVyM/PR3GxhHKRACKRkNtQc3MzGhsaUVlRCbGoiEA9QEREFPz8TsLT0wtOTnvo/xVMf/p3xrCx7xoaGkFbewfy6J5vH+WSWotRXi5FVVU1fX4jB5ndN1f2ZqDoKbMnPTo5gUGqan0jQ3g28AId7Z2oqKlBcF4ebhGU2hoZqagcRUWFyKNrubm5KCwsRFlZGUpLStFCqpHRxpKS7iAsLBwBAYFwc/PA0qXL8c4770JZWRXZeTxUyGqQwxMgNS0dV76OR1RsHC7HXcOVuKs4edIfXkeO4/hxXwrhWyguIeUSfJlMhhYqEHOV72YFikmcyZmV+JGREa46DdACWvueoub5E9Q86cXT/kH0Pn6G8tpa+Gdn42LWI4JSRJCKSEViZGfnkGeBz+dT4i6lBF+Cb9LTERUVDRcXN1hb2cDMxBRWu22waPHv8dZbb+Ptt/8L69Z/BGcXVzg4OsLVzQ3Oe1xgZWUNLQ1NKHyhgC2fbYHiNkXo6ejAY/9BRETHkHpLUVdTy8FqInWNk9J/rv0kKAaJgWHOIDFYowRtjMEjaTMfZc7uGx5BZ28vxJU1KKmsJkXVc5VORoqorJRRWMg4NYlJVUKRCBcvRsDMzByffvo5VixfAbkVchywz7coYPPHn8KR4CxdshTya9djm8KfYWBgyEFycXXFQc8jOPllIMLOX0J4eBRCzl2Ef2govgw4A6FAhEYCVc2UVVnFrf3n2pzlKAZ0cHAAbW1tkFZUoUbWSEm7GU1NLZRs29DR0cGdp6Xdh529A/6koIg/LFtNLgdFxR2Qk1uF1WvWwsLcFNfi4nDr+nXk5+QiMjIWkVFXEH4xEmeDwxAYfA6h4Zdwga5HkF+KjEEUeSQpMzTsHEKCQyGgvFVRVgpJkRiF1H40NjbQAx6m/PbmVXHOQA30v+ASd2GhGAK+EOVl1aipaaRFMlhN5M0ErgGpqXehpaWNf6ew+sd/+lcsXvQ+XF324BAlcGNTE1hamCKcNvwgNRV3U1IQ4B+EM2eCSTkXEB0TgzjKS18TxPiEBKqWiUi8nYCUlNu4fz8FGRlpeJCWAjGfRz2ZhB5YCeVICYUirYeOz549nl7t69ucgRqict9GlUxWJYVAyIdIWEgLraHK1sT1Uqzc11Ciz8/nIe7qNdjbO2PJkhX47Xv/Aw3VnTAy0oWikgL0DXRIFUG4di0O169fQ8SFcFyJjUFS4i2CcA/fZmYgN4dyXQGP1CJAiUSIIjEPvPwsZGU+wIO7d5BG4JIS4nH1cgzOh4XghJ8vfI77oLqy8o17rTkDNTw4hE6qMu0tBKRaSpsQUtmXELga1FPfxNQmlVagmMo4G1nyeXwEBgZBXV2VIGnjmM8hyjUhuBAeipioCMREXkTa3WSIBfkoJRgSUQH4uY+Q9fAB7hOM5FvxuHntKoVdBALO+L9sKYxNzKCioobPP1fAqlXyWPKhHNbLb8aatfL0eUkYePH6jSyzOQHFntEIS+Qtreiixq+zrZVrDYoKRZBQKFZSCFRWFKOK8oaUql2RSID83BwUUw4R8PORnfUQeTkZyHqUjofpdzkQSQk3EE8gYiKjcDYoGEePesPN3QM2VrbQ0zOE0o6d2LhhE4FYiQ+WrsH/0XHR+0uwbCkVhWUrsEZuJTasW4e1a9dh3UcfY9maTfCiFqK7vWVq0a9pcwaKVcMOAtVJ4ddFoJi6amVSSMsK0d5Uje6WejTXVqJcIuJUkXjzOi5HX8KlC+cRHBRIoeFNbQKV/t3WMDA0xQ41dXy8dRvk1v4RH8rJY+WqjVj/0RbIf7YLm7bp4RNlC+wwcIGJow8Mrb2wdYculqzejCXyCvj9ZhUs/lgLv9tqjkU7nbBY3RPv65+BhvfXqKqUUsV+/c59zkKPgWonNbU3NnKq6qHq10PASsR8RISfg+fBQ3B2coIptQN6BkZQ19bFF9u2Y9mKVfjvd3+Hd3+7CCtWb8Rq+U3YtOlP0FYwwW4lG7ioueGIvjfO7QmB3/7zULELxC73WKgeTIDdV/fgfSEdbqcuQ0l7N1YZ+WKZSzyWeyRh5YF7WO/1EBuPPsRmzxRscL0G5QORSEvPoKT+ZHrVs7efBerVxDg+OsaFXntj00tQz7o6UcTPhY62Nv75rf/Av/zbf+Ld9xZh9Tp5fLTxj1ixYiVVvcX43/few+LFi6GgpAp9O2o8Le1wweQ84h1vIvVwKu57pSD7VCqS/BPg6HkWmn7+0Dl1FPYhvjgaGwbvq8FQtzHBFisfbPOIhoJzEBRsT0LR0guKpnuxy8gRKtoWUNe1wOmAIFJ88/SqZ29vDIpBYs7NeDTKjI+Moqu5FW0NzeigCtfd0oYn1D+1N8jg7XUIv/nNO1i1cjXk1mzAcvlPsfwTJXzwmSY+2G6BDzXcsczID1vMDsDA2Rs2LicQtfsYMm3cwXN3gcj7AIqPeUJ8wAnnDhtCM1wbmheUYXBeFe7hNjgdcwR799lCQ1sfqtpG0NAxITfmjmrMtU2gqmkKJVVDOOzZR61DMUZe80Xia4OaATQDiTWa4+PUmQ+zHNWG1vpGTlWdzaSqVlJVZzPi4hOxXOcg1jtHYJ37dfxhzzUs25eIVUfSsMb7G2w4nolP/L6FonsIlA33ws4uBNGWTpDaK0Ec6osMHzdkuRriwcE9iPZyR8BeS9x0tkSasx1yqc0Qe38J8elwWOmYY5u6ITT0rUg9lpyrkavqWBBAc8p7xtA3s0VCYgKePu59uZ/Z2BuD4pQ0DWpsdJzaA8pRpKgWairbaL5iquqiUHza1ohHfBG0AtOx4WgatnonY6d3AlQPx0LNIxgmniEwdPsKmrZe0LfeB1V1M3jbnkGgvT++8roIn4hcHAvLwoFTKdgflAUfvxSkOwWg83QsZKE3UezkhwKHU8j2vQQbAqKoZgANvd2cq9HP6uRqBImBUtE0wy5NExz3O0k9XwPGaf0z+/kp+9mKGhsjH53AyNCUohgopqoOGleYqnrbWlBZXooTZyOhauYBXUtXGFg6Q9/UHibmDjAxtYOhsTWM2JFcTdsMtpZ+sPOIgolvFrwiChB8NQM2volwPJOGs1GZSI1NRlZCCqLj7uJSTA4uXHqE0yHJMLdyxQ4VXQ6Kug6paVpJM0cVLTNsVzaAraM7BAIeXvT1YZI9cHrYEz8B641y1Hew2Iw3SdM5wRoZR//T56SmJrSSotppdGGtAgu/Hnp6cTHR0NIzI0B2MLXZA3NbAmbmAB0jG+ga29F1B+gZ20LL0AY7DN2ga3MUavr2UFDWoJFHDUY0D+7bfwQ3Eu8hjGa/I8d8YWhiD00TD6gbuUJR3ZzUZEx5yJgDwlSkqGKAP+/Uwxc7dLBVUZs7KtDPukZWiKVun/V7Y5Rbxyhfschge/oxm5Nkzr6EtQdDg8Po7uhG00tVsaRO4dfeynXZZtaO0DaxgYG5DYzJTa33wHHfUXh4nYCFnTsMzR2hb+EATSVtnLazxhEDdXymoIQtX+zEdoWd2LVLB5q6ZtAxtuEq2C41IyipG2GnpjHnyjpm2Emhq6zBVEThRq6usxuaFIaa+pbcQ7Jz2ov9nsdx+Uos6qsr0f+8j5rlYe41EtvLj9kbg2L2fVgjQyPoe9bP5arm2nqC1YBOgsXCj8/LgQct0EXfCGH6moh2sMGN68mIy5Tg3OVEGO52pI2ZQZdUoq6lh4OmhnA3pXGEwoYBUNGlTdOG2eaVSTEqpBgNStpaBE2XABgQYENLB5hbO8PZ7SCOePvA/0wQoiIicSv+Fr5Jf4B8NiPmZoOfl4UCGofKiovQ292D4aGpP6fNGyhmr8Jif0wYpurH/oDQ1sTyVT21B9SAErjaqgqcPhsKB1UNnFVXhr+lFfx8A3DANxCO+49S3nIgdVDpN7CGuoHVlBr0LKBFYaJtagt9c3sYWzlzYbvb0RWu+w/jmN+XCAqm2TA2Fsm3E5H5MB1CXi4K+XmcF9GcKCEvFvJQLGJeAAmNTIV0jyCbQBUSqJ5e7n3VvIOasSlYLGdNcLCePX7G5anm+np0cLmqCVeuxBEMA+hoGMGMAKhoGWO7qj6pwopTg4mVE4WgK2yc98LB7RD2H/bBia8CEHo+nELlMlKSbyPnUQYNyDyUF/FRLqbjK14qIigMBnkhARKSivl5TEHkpCCmqLycHAgL+DRvitFMD3FwYBCjlKfmLUf9mLEvY7DYy/8nvc/QQrBYcu9pbUbGg3tw8jgAU4LhQOHhut8Lh739cPpMMCIuReHGzRtIu5eKAgoNNhNWl0pQWVyIimIxpMUiuiYkQEKU0lhUwikkH0UFeRDl5UJIISWkQZufn08VTQChgA9BQQGEfCEKRUU0gBfTgC5BlbQSXR2dVPH6/yI3/TVIzOYUFPuyKZ9SFkvuvT2POVhtNANKadNpKXdwL/UOeAwGAaiWlkJWIYGslM5LRKgiQNJCISrIywkIg1JEoSMiICy/8HIeIe9RJuWYbIgLeBDzBRALRZCIi1BeUkogZKitpvzY3I7HPU/Q3/cCgy+GMDQwTLlohNTDnBREaWKC1sgg/eKgZox96UzOGqAFdnf1kqrq0VBZRjCKICuTcAopLRRMqWPai/i0cd6UQgTMKZcI6ZpIIISIYIgEIoIiprCRoKKsAg11dehs78Dzp88IxgD3TmxkiFTCSj6DwY7jY1xYMX8VChu7Zs5/ChKzeQHFbGYBrGsfGBhCD8m9mhpPLpHmsdyRQyGWA0F+LqmFR5tnbyoLUSIpRkVpOaQVUtRU16COCkJbSztVp16qqM85ZbBxaYyGcOZMHVPnBIaOU0ohp+PktGI4MNPHV9c28/NsbF5B0b+0QIJFDekAyb+FunUxqYMl0zIKE2m5FHU1dWhqaEF7K4PRw/U1wwR2bHhkauPkk2zz0+cTlFNmgPyQUpizLvuHOu3XAfN9mzdQrxqDxXIWp6zex3j65AlVmwHurSgLzwnq7ifpHi5nsI1z/pfnbNSY8ql7OZ8G80vYLwJqZkOvboqdzyhhJl+8qorv+9/afhFQ37cfAsH812x/E1B/j7YAapa2AGqWtgBqlrYAalYG/D+gAkyqP/1ojQAAAABJRU5ErkJggg==;" parent="1" vertex="1">
          <mxGeometry x="141" y="1140.25" width="74" height="47" as="geometry" />
        </mxCell>
        <mxCell id="SttGzAFvQQsQxuULTrQj-19" value="" style="shape=image;verticalLabelPosition=bottom;labelBackgroundColor=default;verticalAlign=top;aspect=fixed;imageAspect=0;image=data:image/png,iVBORw0KGgoAAAANSUhEUgAAAEoAAAAvCAYAAABE6VyYAAAAAXNSR0IArs4c6QAAAARnQU1BAACxjwv8YQUAAAAJcEhZcwAAFxEAABcRAcom8z8AABBhSURBVGhD7Zl3VFZ3msf3nz2752RbZrOb7Oxo9mSMo2InOprmGEYRpffepBdpVkRRQE0EQUBEkaZoVBBBUJQIkfryNnipL7z03m0gvXz3+V3AODnJBA1kMufwnPN4L5fr+/5+n/t92uUfsGCzsgVQs7QFULO0BVCztAVQs7QFULO0BVCztAVQs7R5BzU+PoahoSGMjo5OX/n7tHkGNYn+F31obW1GpbQKnR2d09e/s/7+fgiFIrqnlQM6OX3912bzCmpiYgI9vd0oKZEg42Emamvrpn8zZQySWCxGcnIKSksrUF4qRq2sHIODg9N3/HpsXkGNjY2juakJPF4u0tO/QZGkBE+fPn8JIijoLPxOnEJ8/G36fSZysr+FSMBDQ309+vr6uXtexyYn50+P8x56dbTplLt3UVFexrlMVoW6ujoMDAwgKfkOLl++isTEVKTde4ikpLvIzeWhukpGgJvx/Pnzv7r58fFxPH7ci/b2drS0tKChoQHd3d30gMam75g7mzNQLMwmSEGDw8Mo7+5BAy24q6sLNdXVyM/PR3GxhHKRACKRkNtQc3MzGhsaUVlRCbGoiEA9QEREFPz8TsLT0wtOTnvo/xVMf/p3xrCx7xoaGkFbewfy6J5vH+WSWotRXi5FVVU1fX4jB5ndN1f2ZqDoKbMnPTo5gUGqan0jQ3g28AId7Z2oqKlBcF4ebhGU2hoZqagcRUWFyKNrubm5KCwsRFlZGUpLStFCqpHRxpKS7iAsLBwBAYFwc/PA0qXL8c4770JZWRXZeTxUyGqQwxMgNS0dV76OR1RsHC7HXcOVuKs4edIfXkeO4/hxXwrhWyguIeUSfJlMhhYqEHOV72YFikmcyZmV+JGREa46DdACWvueoub5E9Q86cXT/kH0Pn6G8tpa+Gdn42LWI4JSRJCKSEViZGfnkGeBz+dT4i6lBF+Cb9LTERUVDRcXN1hb2cDMxBRWu22waPHv8dZbb+Ptt/8L69Z/BGcXVzg4OsLVzQ3Oe1xgZWUNLQ1NKHyhgC2fbYHiNkXo6ejAY/9BRETHkHpLUVdTy8FqInWNk9J/rv0kKAaJgWHOIDFYowRtjMEjaTMfZc7uGx5BZ28vxJU1KKmsJkXVc5VORoqorJRRWMg4NYlJVUKRCBcvRsDMzByffvo5VixfAbkVchywz7coYPPHn8KR4CxdshTya9djm8KfYWBgyEFycXXFQc8jOPllIMLOX0J4eBRCzl2Ef2govgw4A6FAhEYCVc2UVVnFrf3n2pzlKAZ0cHAAbW1tkFZUoUbWSEm7GU1NLZRs29DR0cGdp6Xdh529A/6koIg/LFtNLgdFxR2Qk1uF1WvWwsLcFNfi4nDr+nXk5+QiMjIWkVFXEH4xEmeDwxAYfA6h4Zdwga5HkF+KjEEUeSQpMzTsHEKCQyGgvFVRVgpJkRiF1H40NjbQAx6m/PbmVXHOQA30v+ASd2GhGAK+EOVl1aipaaRFMlhN5M0ErgGpqXehpaWNf6ew+sd/+lcsXvQ+XF324BAlcGNTE1hamCKcNvwgNRV3U1IQ4B+EM2eCSTkXEB0TgzjKS18TxPiEBKqWiUi8nYCUlNu4fz8FGRlpeJCWAjGfRz2ZhB5YCeVICYUirYeOz549nl7t69ucgRqict9GlUxWJYVAyIdIWEgLraHK1sT1Uqzc11Ciz8/nIe7qNdjbO2PJkhX47Xv/Aw3VnTAy0oWikgL0DXRIFUG4di0O169fQ8SFcFyJjUFS4i2CcA/fZmYgN4dyXQGP1CJAiUSIIjEPvPwsZGU+wIO7d5BG4JIS4nH1cgzOh4XghJ8vfI77oLqy8o17rTkDNTw4hE6qMu0tBKRaSpsQUtmXELga1FPfxNQmlVagmMo4G1nyeXwEBgZBXV2VIGnjmM8hyjUhuBAeipioCMREXkTa3WSIBfkoJRgSUQH4uY+Q9fAB7hOM5FvxuHntKoVdBALO+L9sKYxNzKCioobPP1fAqlXyWPKhHNbLb8aatfL0eUkYePH6jSyzOQHFntEIS+Qtreiixq+zrZVrDYoKRZBQKFZSCFRWFKOK8oaUql2RSID83BwUUw4R8PORnfUQeTkZyHqUjofpdzkQSQk3EE8gYiKjcDYoGEePesPN3QM2VrbQ0zOE0o6d2LhhE4FYiQ+WrsH/0XHR+0uwbCkVhWUrsEZuJTasW4e1a9dh3UcfY9maTfCiFqK7vWVq0a9pcwaKVcMOAtVJ4ddFoJi6amVSSMsK0d5Uje6WejTXVqJcIuJUkXjzOi5HX8KlC+cRHBRIoeFNbQKV/t3WMDA0xQ41dXy8dRvk1v4RH8rJY+WqjVj/0RbIf7YLm7bp4RNlC+wwcIGJow8Mrb2wdYculqzejCXyCvj9ZhUs/lgLv9tqjkU7nbBY3RPv65+BhvfXqKqUUsV+/c59zkKPgWonNbU3NnKq6qHq10PASsR8RISfg+fBQ3B2coIptQN6BkZQ19bFF9u2Y9mKVfjvd3+Hd3+7CCtWb8Rq+U3YtOlP0FYwwW4lG7ioueGIvjfO7QmB3/7zULELxC73WKgeTIDdV/fgfSEdbqcuQ0l7N1YZ+WKZSzyWeyRh5YF7WO/1EBuPPsRmzxRscL0G5QORSEvPoKT+ZHrVs7efBerVxDg+OsaFXntj00tQz7o6UcTPhY62Nv75rf/Av/zbf+Ld9xZh9Tp5fLTxj1ixYiVVvcX43/few+LFi6GgpAp9O2o8Le1wweQ84h1vIvVwKu57pSD7VCqS/BPg6HkWmn7+0Dl1FPYhvjgaGwbvq8FQtzHBFisfbPOIhoJzEBRsT0LR0guKpnuxy8gRKtoWUNe1wOmAIFJ88/SqZ29vDIpBYs7NeDTKjI+Moqu5FW0NzeigCtfd0oYn1D+1N8jg7XUIv/nNO1i1cjXk1mzAcvlPsfwTJXzwmSY+2G6BDzXcsczID1vMDsDA2Rs2LicQtfsYMm3cwXN3gcj7AIqPeUJ8wAnnDhtCM1wbmheUYXBeFe7hNjgdcwR799lCQ1sfqtpG0NAxITfmjmrMtU2gqmkKJVVDOOzZR61DMUZe80Xia4OaATQDiTWa4+PUmQ+zHNWG1vpGTlWdzaSqVlJVZzPi4hOxXOcg1jtHYJ37dfxhzzUs25eIVUfSsMb7G2w4nolP/L6FonsIlA33ws4uBNGWTpDaK0Ec6osMHzdkuRriwcE9iPZyR8BeS9x0tkSasx1yqc0Qe38J8elwWOmYY5u6ITT0rUg9lpyrkavqWBBAc8p7xtA3s0VCYgKePu59uZ/Z2BuD4pQ0DWpsdJzaA8pRpKgWairbaL5iquqiUHza1ohHfBG0AtOx4WgatnonY6d3AlQPx0LNIxgmniEwdPsKmrZe0LfeB1V1M3jbnkGgvT++8roIn4hcHAvLwoFTKdgflAUfvxSkOwWg83QsZKE3UezkhwKHU8j2vQQbAqKoZgANvd2cq9HP6uRqBImBUtE0wy5NExz3O0k9XwPGaf0z+/kp+9mKGhsjH53AyNCUohgopqoOGleYqnrbWlBZXooTZyOhauYBXUtXGFg6Q9/UHibmDjAxtYOhsTWM2JFcTdsMtpZ+sPOIgolvFrwiChB8NQM2volwPJOGs1GZSI1NRlZCCqLj7uJSTA4uXHqE0yHJMLdyxQ4VXQ6Kug6paVpJM0cVLTNsVzaAraM7BAIeXvT1YZI9cHrYEz8B641y1Hew2Iw3SdM5wRoZR//T56SmJrSSotppdGGtAgu/Hnp6cTHR0NIzI0B2MLXZA3NbAmbmAB0jG+ga29F1B+gZ20LL0AY7DN2ga3MUavr2UFDWoJFHDUY0D+7bfwQ3Eu8hjGa/I8d8YWhiD00TD6gbuUJR3ZzUZEx5yJgDwlSkqGKAP+/Uwxc7dLBVUZs7KtDPukZWiKVun/V7Y5Rbxyhfschge/oxm5Nkzr6EtQdDg8Po7uhG00tVsaRO4dfeynXZZtaO0DaxgYG5DYzJTa33wHHfUXh4nYCFnTsMzR2hb+EATSVtnLazxhEDdXymoIQtX+zEdoWd2LVLB5q6ZtAxtuEq2C41IyipG2GnpjHnyjpm2Emhq6zBVEThRq6usxuaFIaa+pbcQ7Jz2ov9nsdx+Uos6qsr0f+8j5rlYe41EtvLj9kbg2L2fVgjQyPoe9bP5arm2nqC1YBOgsXCj8/LgQct0EXfCGH6moh2sMGN68mIy5Tg3OVEGO52pI2ZQZdUoq6lh4OmhnA3pXGEwoYBUNGlTdOG2eaVSTEqpBgNStpaBE2XABgQYENLB5hbO8PZ7SCOePvA/0wQoiIicSv+Fr5Jf4B8NiPmZoOfl4UCGofKiovQ292D4aGpP6fNGyhmr8Jif0wYpurH/oDQ1sTyVT21B9SAErjaqgqcPhsKB1UNnFVXhr+lFfx8A3DANxCO+49S3nIgdVDpN7CGuoHVlBr0LKBFYaJtagt9c3sYWzlzYbvb0RWu+w/jmN+XCAqm2TA2Fsm3E5H5MB1CXi4K+XmcF9GcKCEvFvJQLGJeAAmNTIV0jyCbQBUSqJ5e7n3VvIOasSlYLGdNcLCePX7G5anm+np0cLmqCVeuxBEMA+hoGMGMAKhoGWO7qj6pwopTg4mVE4WgK2yc98LB7RD2H/bBia8CEHo+nELlMlKSbyPnUQYNyDyUF/FRLqbjK14qIigMBnkhARKSivl5TEHkpCCmqLycHAgL+DRvitFMD3FwYBCjlKfmLUf9mLEvY7DYy/8nvc/QQrBYcu9pbUbGg3tw8jgAU4LhQOHhut8Lh739cPpMMCIuReHGzRtIu5eKAgoNNhNWl0pQWVyIimIxpMUiuiYkQEKU0lhUwikkH0UFeRDl5UJIISWkQZufn08VTQChgA9BQQGEfCEKRUU0gBfTgC5BlbQSXR2dVPH6/yI3/TVIzOYUFPuyKZ9SFkvuvT2POVhtNANKadNpKXdwL/UOeAwGAaiWlkJWIYGslM5LRKgiQNJCISrIywkIg1JEoSMiICy/8HIeIe9RJuWYbIgLeBDzBRALRZCIi1BeUkogZKitpvzY3I7HPU/Q3/cCgy+GMDQwTLlohNTDnBREaWKC1sgg/eKgZox96UzOGqAFdnf1kqrq0VBZRjCKICuTcAopLRRMqWPai/i0cd6UQgTMKZcI6ZpIIISIYIgEIoIiprCRoKKsAg11dehs78Dzp88IxgD3TmxkiFTCSj6DwY7jY1xYMX8VChu7Zs5/ChKzeQHFbGYBrGsfGBhCD8m9mhpPLpHmsdyRQyGWA0F+LqmFR5tnbyoLUSIpRkVpOaQVUtRU16COCkJbSztVp16qqM85ZbBxaYyGcOZMHVPnBIaOU0ohp+PktGI4MNPHV9c28/NsbF5B0b+0QIJFDekAyb+FunUxqYMl0zIKE2m5FHU1dWhqaEF7K4PRw/U1wwR2bHhkauPkk2zz0+cTlFNmgPyQUpizLvuHOu3XAfN9mzdQrxqDxXIWp6zex3j65AlVmwHurSgLzwnq7ifpHi5nsI1z/pfnbNSY8ql7OZ8G80vYLwJqZkOvboqdzyhhJl+8qorv+9/afhFQ37cfAsH812x/E1B/j7YAapa2AGqWtgBqlrYAalYG/D+gAkyqP/1ojQAAAABJRU5ErkJggg==;" parent="1" vertex="1">
          <mxGeometry x="141" y="1220.25" width="74" height="47" as="geometry" />
        </mxCell>
        <mxCell id="SttGzAFvQQsQxuULTrQj-20" value="" style="shape=image;verticalLabelPosition=bottom;labelBackgroundColor=default;verticalAlign=top;aspect=fixed;imageAspect=0;image=data:image/png,iVBORw0KGgoAAAANSUhEUgAAAEoAAAAvCAYAAABE6VyYAAAAAXNSR0IArs4c6QAAAARnQU1BAACxjwv8YQUAAAAJcEhZcwAAFxEAABcRAcom8z8AABBhSURBVGhD7Zl3VFZ3msf3nz2752RbZrOb7Oxo9mSMo2InOprmGEYRpffepBdpVkRRQE0EQUBEkaZoVBBBUJQIkfryNnipL7z03m0gvXz3+V3AODnJBA1kMufwnPN4L5fr+/5+n/t92uUfsGCzsgVQs7QFULO0BVCztAVQs7QFULO0BVCztAVQs7R5BzU+PoahoSGMjo5OX/n7tHkGNYn+F31obW1GpbQKnR2d09e/s/7+fgiFIrqnlQM6OX3912bzCmpiYgI9vd0oKZEg42Emamvrpn8zZQySWCxGcnIKSksrUF4qRq2sHIODg9N3/HpsXkGNjY2juakJPF4u0tO/QZGkBE+fPn8JIijoLPxOnEJ8/G36fSZysr+FSMBDQ309+vr6uXtexyYn50+P8x56dbTplLt3UVFexrlMVoW6ujoMDAwgKfkOLl++isTEVKTde4ikpLvIzeWhukpGgJvx/Pnzv7r58fFxPH7ci/b2drS0tKChoQHd3d30gMam75g7mzNQLMwmSEGDw8Mo7+5BAy24q6sLNdXVyM/PR3GxhHKRACKRkNtQc3MzGhsaUVlRCbGoiEA9QEREFPz8TsLT0wtOTnvo/xVMf/p3xrCx7xoaGkFbewfy6J5vH+WSWotRXi5FVVU1fX4jB5ndN1f2ZqDoKbMnPTo5gUGqan0jQ3g28AId7Z2oqKlBcF4ebhGU2hoZqagcRUWFyKNrubm5KCwsRFlZGUpLStFCqpHRxpKS7iAsLBwBAYFwc/PA0qXL8c4770JZWRXZeTxUyGqQwxMgNS0dV76OR1RsHC7HXcOVuKs4edIfXkeO4/hxXwrhWyguIeUSfJlMhhYqEHOV72YFikmcyZmV+JGREa46DdACWvueoub5E9Q86cXT/kH0Pn6G8tpa+Gdn42LWI4JSRJCKSEViZGfnkGeBz+dT4i6lBF+Cb9LTERUVDRcXN1hb2cDMxBRWu22waPHv8dZbb+Ptt/8L69Z/BGcXVzg4OsLVzQ3Oe1xgZWUNLQ1NKHyhgC2fbYHiNkXo6ejAY/9BRETHkHpLUVdTy8FqInWNk9J/rv0kKAaJgWHOIDFYowRtjMEjaTMfZc7uGx5BZ28vxJU1KKmsJkXVc5VORoqorJRRWMg4NYlJVUKRCBcvRsDMzByffvo5VixfAbkVchywz7coYPPHn8KR4CxdshTya9djm8KfYWBgyEFycXXFQc8jOPllIMLOX0J4eBRCzl2Ef2govgw4A6FAhEYCVc2UVVnFrf3n2pzlKAZ0cHAAbW1tkFZUoUbWSEm7GU1NLZRs29DR0cGdp6Xdh529A/6koIg/LFtNLgdFxR2Qk1uF1WvWwsLcFNfi4nDr+nXk5+QiMjIWkVFXEH4xEmeDwxAYfA6h4Zdwga5HkF+KjEEUeSQpMzTsHEKCQyGgvFVRVgpJkRiF1H40NjbQAx6m/PbmVXHOQA30v+ASd2GhGAK+EOVl1aipaaRFMlhN5M0ErgGpqXehpaWNf6ew+sd/+lcsXvQ+XF324BAlcGNTE1hamCKcNvwgNRV3U1IQ4B+EM2eCSTkXEB0TgzjKS18TxPiEBKqWiUi8nYCUlNu4fz8FGRlpeJCWAjGfRz2ZhB5YCeVICYUirYeOz549nl7t69ucgRqict9GlUxWJYVAyIdIWEgLraHK1sT1Uqzc11Ciz8/nIe7qNdjbO2PJkhX47Xv/Aw3VnTAy0oWikgL0DXRIFUG4di0O169fQ8SFcFyJjUFS4i2CcA/fZmYgN4dyXQGP1CJAiUSIIjEPvPwsZGU+wIO7d5BG4JIS4nH1cgzOh4XghJ8vfI77oLqy8o17rTkDNTw4hE6qMu0tBKRaSpsQUtmXELga1FPfxNQmlVagmMo4G1nyeXwEBgZBXV2VIGnjmM8hyjUhuBAeipioCMREXkTa3WSIBfkoJRgSUQH4uY+Q9fAB7hOM5FvxuHntKoVdBALO+L9sKYxNzKCioobPP1fAqlXyWPKhHNbLb8aatfL0eUkYePH6jSyzOQHFntEIS+Qtreiixq+zrZVrDYoKRZBQKFZSCFRWFKOK8oaUql2RSID83BwUUw4R8PORnfUQeTkZyHqUjofpdzkQSQk3EE8gYiKjcDYoGEePesPN3QM2VrbQ0zOE0o6d2LhhE4FYiQ+WrsH/0XHR+0uwbCkVhWUrsEZuJTasW4e1a9dh3UcfY9maTfCiFqK7vWVq0a9pcwaKVcMOAtVJ4ddFoJi6amVSSMsK0d5Uje6WejTXVqJcIuJUkXjzOi5HX8KlC+cRHBRIoeFNbQKV/t3WMDA0xQ41dXy8dRvk1v4RH8rJY+WqjVj/0RbIf7YLm7bp4RNlC+wwcIGJow8Mrb2wdYculqzejCXyCvj9ZhUs/lgLv9tqjkU7nbBY3RPv65+BhvfXqKqUUsV+/c59zkKPgWonNbU3NnKq6qHq10PASsR8RISfg+fBQ3B2coIptQN6BkZQ19bFF9u2Y9mKVfjvd3+Hd3+7CCtWb8Rq+U3YtOlP0FYwwW4lG7ioueGIvjfO7QmB3/7zULELxC73WKgeTIDdV/fgfSEdbqcuQ0l7N1YZ+WKZSzyWeyRh5YF7WO/1EBuPPsRmzxRscL0G5QORSEvPoKT+ZHrVs7efBerVxDg+OsaFXntj00tQz7o6UcTPhY62Nv75rf/Av/zbf+Ld9xZh9Tp5fLTxj1ixYiVVvcX43/few+LFi6GgpAp9O2o8Le1wweQ84h1vIvVwKu57pSD7VCqS/BPg6HkWmn7+0Dl1FPYhvjgaGwbvq8FQtzHBFisfbPOIhoJzEBRsT0LR0guKpnuxy8gRKtoWUNe1wOmAIFJ88/SqZ29vDIpBYs7NeDTKjI+Moqu5FW0NzeigCtfd0oYn1D+1N8jg7XUIv/nNO1i1cjXk1mzAcvlPsfwTJXzwmSY+2G6BDzXcsczID1vMDsDA2Rs2LicQtfsYMm3cwXN3gcj7AIqPeUJ8wAnnDhtCM1wbmheUYXBeFe7hNjgdcwR799lCQ1sfqtpG0NAxITfmjmrMtU2gqmkKJVVDOOzZR61DMUZe80Xia4OaATQDiTWa4+PUmQ+zHNWG1vpGTlWdzaSqVlJVZzPi4hOxXOcg1jtHYJ37dfxhzzUs25eIVUfSsMb7G2w4nolP/L6FonsIlA33ws4uBNGWTpDaK0Ec6osMHzdkuRriwcE9iPZyR8BeS9x0tkSasx1yqc0Qe38J8elwWOmYY5u6ITT0rUg9lpyrkavqWBBAc8p7xtA3s0VCYgKePu59uZ/Z2BuD4pQ0DWpsdJzaA8pRpKgWairbaL5iquqiUHza1ohHfBG0AtOx4WgatnonY6d3AlQPx0LNIxgmniEwdPsKmrZe0LfeB1V1M3jbnkGgvT++8roIn4hcHAvLwoFTKdgflAUfvxSkOwWg83QsZKE3UezkhwKHU8j2vQQbAqKoZgANvd2cq9HP6uRqBImBUtE0wy5NExz3O0k9XwPGaf0z+/kp+9mKGhsjH53AyNCUohgopqoOGleYqnrbWlBZXooTZyOhauYBXUtXGFg6Q9/UHibmDjAxtYOhsTWM2JFcTdsMtpZ+sPOIgolvFrwiChB8NQM2volwPJOGs1GZSI1NRlZCCqLj7uJSTA4uXHqE0yHJMLdyxQ4VXQ6Kug6paVpJM0cVLTNsVzaAraM7BAIeXvT1YZI9cHrYEz8B641y1Hew2Iw3SdM5wRoZR//T56SmJrSSotppdGGtAgu/Hnp6cTHR0NIzI0B2MLXZA3NbAmbmAB0jG+ga29F1B+gZ20LL0AY7DN2ga3MUavr2UFDWoJFHDUY0D+7bfwQ3Eu8hjGa/I8d8YWhiD00TD6gbuUJR3ZzUZEx5yJgDwlSkqGKAP+/Uwxc7dLBVUZs7KtDPukZWiKVun/V7Y5Rbxyhfschge/oxm5Nkzr6EtQdDg8Po7uhG00tVsaRO4dfeynXZZtaO0DaxgYG5DYzJTa33wHHfUXh4nYCFnTsMzR2hb+EATSVtnLazxhEDdXymoIQtX+zEdoWd2LVLB5q6ZtAxtuEq2C41IyipG2GnpjHnyjpm2Emhq6zBVEThRq6usxuaFIaa+pbcQ7Jz2ov9nsdx+Uos6qsr0f+8j5rlYe41EtvLj9kbg2L2fVgjQyPoe9bP5arm2nqC1YBOgsXCj8/LgQct0EXfCGH6moh2sMGN68mIy5Tg3OVEGO52pI2ZQZdUoq6lh4OmhnA3pXGEwoYBUNGlTdOG2eaVSTEqpBgNStpaBE2XABgQYENLB5hbO8PZ7SCOePvA/0wQoiIicSv+Fr5Jf4B8NiPmZoOfl4UCGofKiovQ292D4aGpP6fNGyhmr8Jif0wYpurH/oDQ1sTyVT21B9SAErjaqgqcPhsKB1UNnFVXhr+lFfx8A3DANxCO+49S3nIgdVDpN7CGuoHVlBr0LKBFYaJtagt9c3sYWzlzYbvb0RWu+w/jmN+XCAqm2TA2Fsm3E5H5MB1CXi4K+XmcF9GcKCEvFvJQLGJeAAmNTIV0jyCbQBUSqJ5e7n3VvIOasSlYLGdNcLCePX7G5anm+np0cLmqCVeuxBEMA+hoGMGMAKhoGWO7qj6pwopTg4mVE4WgK2yc98LB7RD2H/bBia8CEHo+nELlMlKSbyPnUQYNyDyUF/FRLqbjK14qIigMBnkhARKSivl5TEHkpCCmqLycHAgL+DRvitFMD3FwYBCjlKfmLUf9mLEvY7DYy/8nvc/QQrBYcu9pbUbGg3tw8jgAU4LhQOHhut8Lh739cPpMMCIuReHGzRtIu5eKAgoNNhNWl0pQWVyIimIxpMUiuiYkQEKU0lhUwikkH0UFeRDl5UJIISWkQZufn08VTQChgA9BQQGEfCEKRUU0gBfTgC5BlbQSXR2dVPH6/yI3/TVIzOYUFPuyKZ9SFkvuvT2POVhtNANKadNpKXdwL/UOeAwGAaiWlkJWIYGslM5LRKgiQNJCISrIywkIg1JEoSMiICy/8HIeIe9RJuWYbIgLeBDzBRALRZCIi1BeUkogZKitpvzY3I7HPU/Q3/cCgy+GMDQwTLlohNTDnBREaWKC1sgg/eKgZox96UzOGqAFdnf1kqrq0VBZRjCKICuTcAopLRRMqWPai/i0cd6UQgTMKZcI6ZpIIISIYIgEIoIiprCRoKKsAg11dehs78Dzp88IxgD3TmxkiFTCSj6DwY7jY1xYMX8VChu7Zs5/ChKzeQHFbGYBrGsfGBhCD8m9mhpPLpHmsdyRQyGWA0F+LqmFR5tnbyoLUSIpRkVpOaQVUtRU16COCkJbSztVp16qqM85ZbBxaYyGcOZMHVPnBIaOU0ohp+PktGI4MNPHV9c28/NsbF5B0b+0QIJFDekAyb+FunUxqYMl0zIKE2m5FHU1dWhqaEF7K4PRw/U1wwR2bHhkauPkk2zz0+cTlFNmgPyQUpizLvuHOu3XAfN9mzdQrxqDxXIWp6zex3j65AlVmwHurSgLzwnq7ifpHi5nsI1z/pfnbNSY8ql7OZ8G80vYLwJqZkOvboqdzyhhJl+8qorv+9/afhFQ37cfAsH812x/E1B/j7YAapa2AGqWtgBqlrYAalYG/D+gAkyqP/1ojQAAAABJRU5ErkJggg==;" parent="1" vertex="1">
          <mxGeometry x="141" y="1310.25" width="74" height="47" as="geometry" />
        </mxCell>
        <mxCell id="SttGzAFvQQsQxuULTrQj-21" value="" style="shape=image;verticalLabelPosition=bottom;labelBackgroundColor=default;verticalAlign=top;aspect=fixed;imageAspect=0;image=data:image/png,iVBORw0KGgoAAAANSUhEUgAAAEoAAAAvCAYAAABE6VyYAAAAAXNSR0IArs4c6QAAAARnQU1BAACxjwv8YQUAAAAJcEhZcwAAFxEAABcRAcom8z8AABBhSURBVGhD7Zl3VFZ3msf3nz2752RbZrOb7Oxo9mSMo2InOprmGEYRpffepBdpVkRRQE0EQUBEkaZoVBBBUJQIkfryNnipL7z03m0gvXz3+V3AODnJBA1kMufwnPN4L5fr+/5+n/t92uUfsGCzsgVQs7QFULO0BVCztAVQs7QFULO0BVCztAVQs7R5BzU+PoahoSGMjo5OX/n7tHkGNYn+F31obW1GpbQKnR2d09e/s/7+fgiFIrqnlQM6OX3912bzCmpiYgI9vd0oKZEg42Emamvrpn8zZQySWCxGcnIKSksrUF4qRq2sHIODg9N3/HpsXkGNjY2juakJPF4u0tO/QZGkBE+fPn8JIijoLPxOnEJ8/G36fSZysr+FSMBDQ309+vr6uXtexyYn50+P8x56dbTplLt3UVFexrlMVoW6ujoMDAwgKfkOLl++isTEVKTde4ikpLvIzeWhukpGgJvx/Pnzv7r58fFxPH7ci/b2drS0tKChoQHd3d30gMam75g7mzNQLMwmSEGDw8Mo7+5BAy24q6sLNdXVyM/PR3GxhHKRACKRkNtQc3MzGhsaUVlRCbGoiEA9QEREFPz8TsLT0wtOTnvo/xVMf/p3xrCx7xoaGkFbewfy6J5vH+WSWotRXi5FVVU1fX4jB5ndN1f2ZqDoKbMnPTo5gUGqan0jQ3g28AId7Z2oqKlBcF4ebhGU2hoZqagcRUWFyKNrubm5KCwsRFlZGUpLStFCqpHRxpKS7iAsLBwBAYFwc/PA0qXL8c4770JZWRXZeTxUyGqQwxMgNS0dV76OR1RsHC7HXcOVuKs4edIfXkeO4/hxXwrhWyguIeUSfJlMhhYqEHOV72YFikmcyZmV+JGREa46DdACWvueoub5E9Q86cXT/kH0Pn6G8tpa+Gdn42LWI4JSRJCKSEViZGfnkGeBz+dT4i6lBF+Cb9LTERUVDRcXN1hb2cDMxBRWu22waPHv8dZbb+Ptt/8L69Z/BGcXVzg4OsLVzQ3Oe1xgZWUNLQ1NKHyhgC2fbYHiNkXo6ejAY/9BRETHkHpLUVdTy8FqInWNk9J/rv0kKAaJgWHOIDFYowRtjMEjaTMfZc7uGx5BZ28vxJU1KKmsJkXVc5VORoqorJRRWMg4NYlJVUKRCBcvRsDMzByffvo5VixfAbkVchywz7coYPPHn8KR4CxdshTya9djm8KfYWBgyEFycXXFQc8jOPllIMLOX0J4eBRCzl2Ef2govgw4A6FAhEYCVc2UVVnFrf3n2pzlKAZ0cHAAbW1tkFZUoUbWSEm7GU1NLZRs29DR0cGdp6Xdh529A/6koIg/LFtNLgdFxR2Qk1uF1WvWwsLcFNfi4nDr+nXk5+QiMjIWkVFXEH4xEmeDwxAYfA6h4Zdwga5HkF+KjEEUeSQpMzTsHEKCQyGgvFVRVgpJkRiF1H40NjbQAx6m/PbmVXHOQA30v+ASd2GhGAK+EOVl1aipaaRFMlhN5M0ErgGpqXehpaWNf6ew+sd/+lcsXvQ+XF324BAlcGNTE1hamCKcNvwgNRV3U1IQ4B+EM2eCSTkXEB0TgzjKS18TxPiEBKqWiUi8nYCUlNu4fz8FGRlpeJCWAjGfRz2ZhB5YCeVICYUirYeOz549nl7t69ucgRqict9GlUxWJYVAyIdIWEgLraHK1sT1Uqzc11Ciz8/nIe7qNdjbO2PJkhX47Xv/Aw3VnTAy0oWikgL0DXRIFUG4di0O169fQ8SFcFyJjUFS4i2CcA/fZmYgN4dyXQGP1CJAiUSIIjEPvPwsZGU+wIO7d5BG4JIS4nH1cgzOh4XghJ8vfI77oLqy8o17rTkDNTw4hE6qMu0tBKRaSpsQUtmXELga1FPfxNQmlVagmMo4G1nyeXwEBgZBXV2VIGnjmM8hyjUhuBAeipioCMREXkTa3WSIBfkoJRgSUQH4uY+Q9fAB7hOM5FvxuHntKoVdBALO+L9sKYxNzKCioobPP1fAqlXyWPKhHNbLb8aatfL0eUkYePH6jSyzOQHFntEIS+Qtreiixq+zrZVrDYoKRZBQKFZSCFRWFKOK8oaUql2RSID83BwUUw4R8PORnfUQeTkZyHqUjofpdzkQSQk3EE8gYiKjcDYoGEePesPN3QM2VrbQ0zOE0o6d2LhhE4FYiQ+WrsH/0XHR+0uwbCkVhWUrsEZuJTasW4e1a9dh3UcfY9maTfCiFqK7vWVq0a9pcwaKVcMOAtVJ4ddFoJi6amVSSMsK0d5Uje6WejTXVqJcIuJUkXjzOi5HX8KlC+cRHBRIoeFNbQKV/t3WMDA0xQ41dXy8dRvk1v4RH8rJY+WqjVj/0RbIf7YLm7bp4RNlC+wwcIGJow8Mrb2wdYculqzejCXyCvj9ZhUs/lgLv9tqjkU7nbBY3RPv65+BhvfXqKqUUsV+/c59zkKPgWonNbU3NnKq6qHq10PASsR8RISfg+fBQ3B2coIptQN6BkZQ19bFF9u2Y9mKVfjvd3+Hd3+7CCtWb8Rq+U3YtOlP0FYwwW4lG7ioueGIvjfO7QmB3/7zULELxC73WKgeTIDdV/fgfSEdbqcuQ0l7N1YZ+WKZSzyWeyRh5YF7WO/1EBuPPsRmzxRscL0G5QORSEvPoKT+ZHrVs7efBerVxDg+OsaFXntj00tQz7o6UcTPhY62Nv75rf/Av/zbf+Ld9xZh9Tp5fLTxj1ixYiVVvcX43/few+LFi6GgpAp9O2o8Le1wweQ84h1vIvVwKu57pSD7VCqS/BPg6HkWmn7+0Dl1FPYhvjgaGwbvq8FQtzHBFisfbPOIhoJzEBRsT0LR0guKpnuxy8gRKtoWUNe1wOmAIFJ88/SqZ29vDIpBYs7NeDTKjI+Moqu5FW0NzeigCtfd0oYn1D+1N8jg7XUIv/nNO1i1cjXk1mzAcvlPsfwTJXzwmSY+2G6BDzXcsczID1vMDsDA2Rs2LicQtfsYMm3cwXN3gcj7AIqPeUJ8wAnnDhtCM1wbmheUYXBeFe7hNjgdcwR799lCQ1sfqtpG0NAxITfmjmrMtU2gqmkKJVVDOOzZR61DMUZe80Xia4OaATQDiTWa4+PUmQ+zHNWG1vpGTlWdzaSqVlJVZzPi4hOxXOcg1jtHYJ37dfxhzzUs25eIVUfSsMb7G2w4nolP/L6FonsIlA33ws4uBNGWTpDaK0Ec6osMHzdkuRriwcE9iPZyR8BeS9x0tkSasx1yqc0Qe38J8elwWOmYY5u6ITT0rUg9lpyrkavqWBBAc8p7xtA3s0VCYgKePu59uZ/Z2BuD4pQ0DWpsdJzaA8pRpKgWairbaL5iquqiUHza1ohHfBG0AtOx4WgatnonY6d3AlQPx0LNIxgmniEwdPsKmrZe0LfeB1V1M3jbnkGgvT++8roIn4hcHAvLwoFTKdgflAUfvxSkOwWg83QsZKE3UezkhwKHU8j2vQQbAqKoZgANvd2cq9HP6uRqBImBUtE0wy5NExz3O0k9XwPGaf0z+/kp+9mKGhsjH53AyNCUohgopqoOGleYqnrbWlBZXooTZyOhauYBXUtXGFg6Q9/UHibmDjAxtYOhsTWM2JFcTdsMtpZ+sPOIgolvFrwiChB8NQM2volwPJOGs1GZSI1NRlZCCqLj7uJSTA4uXHqE0yHJMLdyxQ4VXQ6Kug6paVpJM0cVLTNsVzaAraM7BAIeXvT1YZI9cHrYEz8B641y1Hew2Iw3SdM5wRoZR//T56SmJrSSotppdGGtAgu/Hnp6cTHR0NIzI0B2MLXZA3NbAmbmAB0jG+ga29F1B+gZ20LL0AY7DN2ga3MUavr2UFDWoJFHDUY0D+7bfwQ3Eu8hjGa/I8d8YWhiD00TD6gbuUJR3ZzUZEx5yJgDwlSkqGKAP+/Uwxc7dLBVUZs7KtDPukZWiKVun/V7Y5Rbxyhfschge/oxm5Nkzr6EtQdDg8Po7uhG00tVsaRO4dfeynXZZtaO0DaxgYG5DYzJTa33wHHfUXh4nYCFnTsMzR2hb+EATSVtnLazxhEDdXymoIQtX+zEdoWd2LVLB5q6ZtAxtuEq2C41IyipG2GnpjHnyjpm2Emhq6zBVEThRq6usxuaFIaa+pbcQ7Jz2ov9nsdx+Uos6qsr0f+8j5rlYe41EtvLj9kbg2L2fVgjQyPoe9bP5arm2nqC1YBOgsXCj8/LgQct0EXfCGH6moh2sMGN68mIy5Tg3OVEGO52pI2ZQZdUoq6lh4OmhnA3pXGEwoYBUNGlTdOG2eaVSTEqpBgNStpaBE2XABgQYENLB5hbO8PZ7SCOePvA/0wQoiIicSv+Fr5Jf4B8NiPmZoOfl4UCGofKiovQ292D4aGpP6fNGyhmr8Jif0wYpurH/oDQ1sTyVT21B9SAErjaqgqcPhsKB1UNnFVXhr+lFfx8A3DANxCO+49S3nIgdVDpN7CGuoHVlBr0LKBFYaJtagt9c3sYWzlzYbvb0RWu+w/jmN+XCAqm2TA2Fsm3E5H5MB1CXi4K+XmcF9GcKCEvFvJQLGJeAAmNTIV0jyCbQBUSqJ5e7n3VvIOasSlYLGdNcLCePX7G5anm+np0cLmqCVeuxBEMA+hoGMGMAKhoGWO7qj6pwopTg4mVE4WgK2yc98LB7RD2H/bBia8CEHo+nELlMlKSbyPnUQYNyDyUF/FRLqbjK14qIigMBnkhARKSivl5TEHkpCCmqLycHAgL+DRvitFMD3FwYBCjlKfmLUf9mLEvY7DYy/8nvc/QQrBYcu9pbUbGg3tw8jgAU4LhQOHhut8Lh739cPpMMCIuReHGzRtIu5eKAgoNNhNWl0pQWVyIimIxpMUiuiYkQEKU0lhUwikkH0UFeRDl5UJIISWkQZufn08VTQChgA9BQQGEfCEKRUU0gBfTgC5BlbQSXR2dVPH6/yI3/TVIzOYUFPuyKZ9SFkvuvT2POVhtNANKadNpKXdwL/UOeAwGAaiWlkJWIYGslM5LRKgiQNJCISrIywkIg1JEoSMiICy/8HIeIe9RJuWYbIgLeBDzBRALRZCIi1BeUkogZKitpvzY3I7HPU/Q3/cCgy+GMDQwTLlohNTDnBREaWKC1sgg/eKgZox96UzOGqAFdnf1kqrq0VBZRjCKICuTcAopLRRMqWPai/i0cd6UQgTMKZcI6ZpIIISIYIgEIoIiprCRoKKsAg11dehs78Dzp88IxgD3TmxkiFTCSj6DwY7jY1xYMX8VChu7Zs5/ChKzeQHFbGYBrGsfGBhCD8m9mhpPLpHmsdyRQyGWA0F+LqmFR5tnbyoLUSIpRkVpOaQVUtRU16COCkJbSztVp16qqM85ZbBxaYyGcOZMHVPnBIaOU0ohp+PktGI4MNPHV9c28/NsbF5B0b+0QIJFDekAyb+FunUxqYMl0zIKE2m5FHU1dWhqaEF7K4PRw/U1wwR2bHhkauPkk2zz0+cTlFNmgPyQUpizLvuHOu3XAfN9mzdQrxqDxXIWp6zex3j65AlVmwHurSgLzwnq7ifpHi5nsI1z/pfnbNSY8ql7OZ8G80vYLwJqZkOvboqdzyhhJl+8qorv+9/afhFQ37cfAsH812x/E1B/j7YAapa2AGqWtgBqlrYAalYG/D+gAkyqP/1ojQAAAABJRU5ErkJggg==;" parent="1" vertex="1">
          <mxGeometry x="141" y="1399.25" width="74" height="47" as="geometry" />
        </mxCell>
        <mxCell id="SttGzAFvQQsQxuULTrQj-23" value="IOT消息转发组件" style="whiteSpace=wrap;html=1;fillColor=#bac8d3;fontSize=14;strokeColor=#23445d;verticalAlign=top;" parent="1" vertex="1">
          <mxGeometry x="580" y="990" width="1010" height="560" as="geometry" />
        </mxCell>
        <mxCell id="SttGzAFvQQsQxuULTrQj-22" value="" style="endArrow=classic;startArrow=classic;html=1;rounded=0;entryX=1;entryY=0.5;entryDx=0;entryDy=0;exitX=0.081;exitY=0.547;exitDx=0;exitDy=0;exitPerimeter=0;" parent="1" source="Z2uGZewagYrOCoyfHnp2-10" target="SttGzAFvQQsQxuULTrQj-17" edge="1">
          <mxGeometry width="50" height="50" relative="1" as="geometry">
            <mxPoint x="480" y="1070" as="sourcePoint" />
            <mxPoint x="430" y="820" as="targetPoint" />
          </mxGeometry>
        </mxCell>
        <mxCell id="FwWe-e63YRs7cjETJ5fd-1" value="" style="whiteSpace=wrap;html=1;fillColor=#d5e8d4;fontSize=14;strokeColor=none;verticalAlign=top;" parent="1" vertex="1">
          <mxGeometry x="801.5" y="1053" width="551.5" height="187" as="geometry" />
        </mxCell>
        <mxCell id="FwWe-e63YRs7cjETJ5fd-2" value="IOT" style="verticalLabelPosition=top;aspect=fixed;html=1;verticalAlign=bottom;strokeColor=none;shape=mxgraph.citrix.cache_server;fillColor=#66B2FF;gradientColor=#0066CC;fontSize=14;labelPosition=center;align=center;" parent="1" vertex="1">
          <mxGeometry x="857" y="1108" width="71" height="97.5" as="geometry" />
        </mxCell>
        <mxCell id="FwWe-e63YRs7cjETJ5fd-4" value="" style="image;sketch=0;aspect=fixed;html=1;points=[];align=center;fontSize=12;image=img/lib/mscae/Cache_Redis_Product.svg;" parent="1" vertex="1">
          <mxGeometry x="1007.99" y="1130.5" width="50" height="42" as="geometry" />
        </mxCell>
        <mxCell id="FwWe-e63YRs7cjETJ5fd-6" value="" style="whiteSpace=wrap;html=1;fillColor=#d5e8d4;fontSize=14;strokeColor=none;verticalAlign=top;" parent="1" vertex="1">
          <mxGeometry x="803" y="1300" width="560" height="163" as="geometry" />
        </mxCell>
        <mxCell id="FwWe-e63YRs7cjETJ5fd-8" value="IOT" style="verticalLabelPosition=top;aspect=fixed;html=1;verticalAlign=bottom;strokeColor=none;shape=mxgraph.citrix.cache_server;fillColor=#66B2FF;gradientColor=#0066CC;fontSize=14;labelPosition=center;align=center;" parent="1" vertex="1">
          <mxGeometry x="857" y="1348.75" width="71" height="97.5" as="geometry" />
        </mxCell>
        <mxCell id="FwWe-e63YRs7cjETJ5fd-9" value="" style="verticalLabelPosition=bottom;aspect=fixed;html=1;verticalAlign=top;strokeColor=none;shape=mxgraph.citrix.xenclient_synchronizer;fillColor=#CCCCCC;gradientColor=#000000;gradientDirection=south;fontSize=14;" parent="1" vertex="1">
          <mxGeometry x="1217" y="1108" width="76" height="91" as="geometry" />
        </mxCell>
        <mxCell id="FwWe-e63YRs7cjETJ5fd-10" value="" style="verticalLabelPosition=bottom;aspect=fixed;html=1;verticalAlign=top;strokeColor=none;shape=mxgraph.citrix.xenclient_synchronizer;fillColor=#CCCCCC;gradientColor=#000000;gradientDirection=south;fontSize=14;" parent="1" vertex="1">
          <mxGeometry x="1217" y="1357.25" width="76" height="91" as="geometry" />
        </mxCell>
        <mxCell id="FwWe-e63YRs7cjETJ5fd-11" value="" style="image;sketch=0;aspect=fixed;html=1;points=[];align=center;fontSize=12;image=img/lib/mscae/Cache_Redis_Product.svg;" parent="1" vertex="1">
          <mxGeometry x="1007.99" y="1337" width="50" height="42" as="geometry" />
        </mxCell>
        <mxCell id="FwWe-e63YRs7cjETJ5fd-20" value="" style="endArrow=classic;html=1;rounded=0;exitX=0.953;exitY=0.819;exitDx=0;exitDy=0;exitPerimeter=0;entryX=-0.023;entryY=0.49;entryDx=0;entryDy=0;entryPerimeter=0;" parent="1" source="Z2uGZewagYrOCoyfHnp2-10" target="FwWe-e63YRs7cjETJ5fd-8" edge="1">
          <mxGeometry width="50" height="50" relative="1" as="geometry">
            <mxPoint x="430" y="1305" as="sourcePoint" />
            <mxPoint x="510" y="1450" as="targetPoint" />
          </mxGeometry>
        </mxCell>
        <mxCell id="FwWe-e63YRs7cjETJ5fd-21" value="" style="endArrow=classic;html=1;rounded=0;entryX=-0.008;entryY=0.447;entryDx=0;entryDy=0;entryPerimeter=0;exitX=0.962;exitY=0.297;exitDx=0;exitDy=0;exitPerimeter=0;" parent="1" target="FwWe-e63YRs7cjETJ5fd-2" edge="1" source="Z2uGZewagYrOCoyfHnp2-10">
          <mxGeometry width="50" height="50" relative="1" as="geometry">
            <mxPoint x="1150.5" y="992.9999999999999" as="sourcePoint" />
            <mxPoint x="1276.5" y="1112" as="targetPoint" />
          </mxGeometry>
        </mxCell>
        <mxCell id="FwWe-e63YRs7cjETJ5fd-22" value="" style="endArrow=classic;startArrow=classic;html=1;rounded=0;" parent="1" source="FwWe-e63YRs7cjETJ5fd-2" target="FwWe-e63YRs7cjETJ5fd-8" edge="1">
          <mxGeometry width="50" height="50" relative="1" as="geometry">
            <mxPoint x="992.5" y="1183" as="sourcePoint" />
            <mxPoint x="1042.5" y="1133" as="targetPoint" />
          </mxGeometry>
        </mxCell>
        <mxCell id="FwWe-e63YRs7cjETJ5fd-24" value="" style="endArrow=classic;startArrow=classic;html=1;rounded=0;exitX=0.491;exitY=0.999;exitDx=0;exitDy=0;exitPerimeter=0;" parent="1" source="FwWe-e63YRs7cjETJ5fd-4" target="FwWe-e63YRs7cjETJ5fd-11" edge="1">
          <mxGeometry width="50" height="50" relative="1" as="geometry">
            <mxPoint x="992.5" y="1183" as="sourcePoint" />
            <mxPoint x="1042.5" y="1133" as="targetPoint" />
          </mxGeometry>
        </mxCell>
        <mxCell id="FwWe-e63YRs7cjETJ5fd-25" value="" style="endArrow=classic;startArrow=classic;html=1;rounded=0;entryX=0.915;entryY=0.126;entryDx=0;entryDy=0;entryPerimeter=0;" parent="1" target="FwWe-e63YRs7cjETJ5fd-2" edge="1">
          <mxGeometry width="50" height="50" relative="1" as="geometry">
            <mxPoint x="1223" y="1120" as="sourcePoint" />
            <mxPoint x="1042.5" y="1133" as="targetPoint" />
          </mxGeometry>
        </mxCell>
        <mxCell id="FwWe-e63YRs7cjETJ5fd-26" value="" style="endArrow=classic;startArrow=classic;html=1;rounded=0;exitX=0.893;exitY=0.431;exitDx=0;exitDy=0;exitPerimeter=0;" parent="1" source="FwWe-e63YRs7cjETJ5fd-2" target="FwWe-e63YRs7cjETJ5fd-4" edge="1">
          <mxGeometry width="50" height="50" relative="1" as="geometry">
            <mxPoint x="992.5" y="1183" as="sourcePoint" />
            <mxPoint x="1042.5" y="1133" as="targetPoint" />
          </mxGeometry>
        </mxCell>
        <mxCell id="FwWe-e63YRs7cjETJ5fd-28" value="" style="endArrow=classic;startArrow=classic;html=1;rounded=0;entryX=0.987;entryY=0.593;entryDx=0;entryDy=0;entryPerimeter=0;exitX=0.013;exitY=0.482;exitDx=0;exitDy=0;exitPerimeter=0;" parent="1" source="FwWe-e63YRs7cjETJ5fd-10" target="FwWe-e63YRs7cjETJ5fd-8" edge="1">
          <mxGeometry width="50" height="50" relative="1" as="geometry">
            <mxPoint x="899.5" y="1368" as="sourcePoint" />
            <mxPoint x="894.5" y="1207" as="targetPoint" />
          </mxGeometry>
        </mxCell>
        <mxCell id="Z2uGZewagYrOCoyfHnp2-1" value="" style="endArrow=classic;startArrow=classic;html=1;rounded=0;exitX=0.885;exitY=0.127;exitDx=0;exitDy=0;exitPerimeter=0;" edge="1" parent="1" source="FwWe-e63YRs7cjETJ5fd-8" target="FwWe-e63YRs7cjETJ5fd-11">
          <mxGeometry width="50" height="50" relative="1" as="geometry">
            <mxPoint x="1092.5" y="1200.5" as="sourcePoint" />
            <mxPoint x="1122.5" y="1262.5" as="targetPoint" />
          </mxGeometry>
        </mxCell>
        <mxCell id="Z2uGZewagYrOCoyfHnp2-4" value="MQ" style="text;html=1;align=center;verticalAlign=middle;whiteSpace=wrap;rounded=0;" vertex="1" parent="1">
          <mxGeometry x="1057.99" y="1131.5" width="60" height="30" as="geometry" />
        </mxCell>
        <mxCell id="Z2uGZewagYrOCoyfHnp2-5" value="MQ" style="text;html=1;align=center;verticalAlign=middle;whiteSpace=wrap;rounded=0;" vertex="1" parent="1">
          <mxGeometry x="1057.99" y="1337" width="60" height="30" as="geometry" />
        </mxCell>
        <mxCell id="Z2uGZewagYrOCoyfHnp2-10" value="" style="verticalLabelPosition=bottom;aspect=fixed;html=1;verticalAlign=top;strokeColor=none;shape=mxgraph.citrix.router;fillColor=#66B2FF;gradientColor=#0066CC;fontSize=14;" vertex="1" parent="1">
          <mxGeometry x="392.01" y="1252.75" width="51.99" height="34.5" as="geometry" />
        </mxCell>
        <mxCell id="Z2uGZewagYrOCoyfHnp2-12" value="Failover" style="text;html=1;align=center;verticalAlign=middle;whiteSpace=wrap;rounded=0;" vertex="1" parent="1">
          <mxGeometry x="946.5" y="403" width="60" height="30" as="geometry" />
        </mxCell>
        <mxCell id="Z2uGZewagYrOCoyfHnp2-13" value="AlwaysOn" style="text;html=1;align=center;verticalAlign=middle;whiteSpace=wrap;rounded=0;" vertex="1" parent="1">
          <mxGeometry x="1440" y="491" width="60" height="30" as="geometry" />
        </mxCell>
        <mxCell id="Z2uGZewagYrOCoyfHnp2-15" value="" style="verticalLabelPosition=bottom;aspect=fixed;html=1;verticalAlign=top;strokeColor=none;shape=mxgraph.citrix.router;fillColor=#66B2FF;gradientColor=#0066CC;fontSize=14;" vertex="1" parent="1">
          <mxGeometry x="402.01" y="446.75" width="51.99" height="34.5" as="geometry" />
        </mxCell>
        <mxCell id="Z2uGZewagYrOCoyfHnp2-16" value="Load Balancer" style="text;html=1;align=center;verticalAlign=middle;whiteSpace=wrap;rounded=0;" vertex="1" parent="1">
          <mxGeometry x="398.01" y="413" width="60" height="30" as="geometry" />
        </mxCell>
        <mxCell id="Z2uGZewagYrOCoyfHnp2-18" value="" style="endArrow=none;html=1;rounded=0;entryX=0;entryY=0.5;entryDx=0;entryDy=0;exitX=1.025;exitY=0.577;exitDx=0;exitDy=0;exitPerimeter=0;" edge="1" parent="1" source="Z2uGZewagYrOCoyfHnp2-15" target="6a7d8f32e03d9370-59">
          <mxGeometry width="50" height="50" relative="1" as="geometry">
            <mxPoint x="465" y="475" as="sourcePoint" />
            <mxPoint x="495" y="496" as="targetPoint" />
          </mxGeometry>
        </mxCell>
        <mxCell id="Z2uGZewagYrOCoyfHnp2-20" value="" style="endArrow=classic;startArrow=classic;html=1;rounded=0;exitX=0.432;exitY=0.903;exitDx=0;exitDy=0;exitPerimeter=0;entryX=0.468;entryY=-0.038;entryDx=0;entryDy=0;entryPerimeter=0;" edge="1" parent="1" source="FwWe-e63YRs7cjETJ5fd-9" target="FwWe-e63YRs7cjETJ5fd-10">
          <mxGeometry width="50" height="50" relative="1" as="geometry">
            <mxPoint x="1043" y="1182" as="sourcePoint" />
            <mxPoint x="1043" y="1347" as="targetPoint" />
          </mxGeometry>
        </mxCell>
      </root>
    </mxGraphModel>
  </diagram>
</mxfile>
